<?xml version="1.0" standalone="no"?>
<!DOCTYPE svg PUBLIC "-//W3C//DTD SVG 20010904//EN"
 "http://www.w3.org/TR/2001/REC-SVG-20010904/DTD/svg10.dtd">
<svg version="1.0" xmlns="http://www.w3.org/2000/svg"
 width="405.000000pt" height="405.000000pt" viewBox="0 0 405.000000 405.000000"
 preserveAspectRatio="xMidYMid meet">
<metadata>
Created by potrace 1.11, written by Peter Selinger 2001-2013
</metadata>
<g transform="translate(0.000000,405.000000) scale(0.100000,-0.100000)"
fill="#000000" stroke="none">
<path d="M1489 3951 l23 -18 -43 -22 c-63 -33 -206 -183 -220 -232 -13 -41
-29 -52 -29 -19 0 11 -5 20 -11 20 -18 0 -5 -107 20 -165 l22 -50 -23 28 -23
28 -43 -23 c-31 -17 -42 -28 -40 -43 3 -18 9 -20 66 -16 40 2 62 -1 62 -8 0
-6 -6 -11 -13 -11 -8 0 -22 -9 -32 -20 -10 -11 -41 -27 -69 -35 -48 -14 -116
-53 -116 -66 0 -4 -21 -12 -46 -19 -32 -9 -60 -27 -90 -58 -37 -40 -42 -42
-38 -21 3 17 0 15 -11 -10 -26 -56 -36 -130 -25 -189 5 -29 12 -57 15 -62 3
-6 -1 -7 -9 -4 -14 5 -70 -18 -79 -33 -3 -5 3 -53 13 -108 10 -55 16 -103 14
-107 -3 -5 0 -8 7 -8 8 0 9 14 4 48 -13 79 -12 82 31 108 l42 25 27 -47 27
-46 -21 -39 c-38 -66 -16 -43 27 29 24 41 51 73 68 80 14 7 28 11 30 10 1 -2
-21 -42 -50 -88 l-52 -85 -54 2 c-30 2 -49 0 -42 -3 6 -3 12 -10 12 -15 0 -12
-75 -49 -100 -49 -11 0 -40 -10 -63 -21 -32 -17 -62 -22 -134 -23 -51 -1 -93
1 -93 4 0 3 6 12 13 20 6 8 -4 3 -23 -11 -50 -37 -125 -138 -149 -205 -15 -38
-23 -85 -24 -141 -2 -69 -6 -88 -21 -99 -17 -12 -18 -25 -12 -186 11 -303 15
-338 40 -348 11 -4 22 -7 23 -6 0 0 -5 96 -12 211 -16 255 -11 269 54 169 77
-117 157 -180 276 -217 124 -38 285 -24 381 34 17 11 37 19 44 19 7 0 44 -28
84 -62 39 -34 75 -65 79 -69 8 -6 -212 -182 -258 -207 -16 -8 -65 -1 -210 28
-235 47 -355 59 -355 37 0 -9 -8 -21 -17 -26 -15 -9 -16 -10 -2 -11 9 0 16 -7
16 -14 0 -11 -5 -13 -19 -5 -11 6 -18 6 -18 0 0 -10 -85 -7 -122 4 -31 10 -69
46 -61 58 3 6 1 7 -4 4 -12 -8 -40 22 -41 43 -4 161 -16 416 -20 420 -2 3 -2
-97 1 -222 5 -222 6 -229 31 -270 32 -54 97 -124 122 -131 10 -3 154 -34 319
-68 165 -34 305 -67 311 -73 6 -6 32 -147 57 -314 27 -175 54 -316 63 -335 26
-50 111 -143 141 -155 16 -6 201 -52 412 -101 l383 -90 91 27 90 27 206 225
c113 124 233 254 267 289 l61 64 395 -83 395 -83 79 24 79 24 178 235 c97 129
194 261 213 293 35 56 36 60 29 127 -7 68 -7 69 -138 252 -93 130 -139 205
-159 258 -16 41 -30 80 -31 86 -1 6 48 66 108 133 134 149 160 194 151 264 -6
45 -17 62 -114 175 -106 126 -106 126 -114 191 l-7 66 80 75 c58 55 83 87 94
119 29 84 25 94 -85 206 l-100 101 0 77 c0 108 -27 176 -99 248 -78 77 -145
102 -261 97 -69 -3 -98 -10 -150 -34 -76 -36 -158 -111 -191 -177 -20 -39 -44
-60 -157 -137 -73 -49 -135 -90 -138 -90 -2 0 -4 7 -4 15 0 34 -61 133 -109
178 -75 70 -148 101 -241 101 -81 1 -168 -22 -210 -55 l-25 -19 28 10 c16 5
39 7 53 4 24 -6 24 -6 -19 -56 -64 -75 -157 -169 -157 -157 0 5 13 39 29 74
17 36 31 73 32 82 3 24 -36 87 -66 107 -31 21 -32 20 -29 -6 1 -13 3 -33 3
-46 1 -16 5 -21 14 -16 6 4 9 4 5 0 -3 -4 0 -25 7 -47 16 -44 5 -60 -18 -26
-32 50 -76 146 -96 212 -52 178 -184 285 -349 285 -67 0 -67 -1 -43 -19z
m1631 -343 c-11 -24 -20 -50 -20 -58 0 -8 -24 -34 -54 -57 l-54 -43 -6 25
c-13 51 30 114 108 158 44 25 47 22 26 -25z m-1179 -135 c32 -50 32 -50 5
-148 -13 -49 -15 -51 -125 -117 -96 -59 -119 -68 -159 -68 -56 0 -61 3 -91 54
-26 45 -21 50 45 60 59 8 131 46 176 93 35 36 88 133 88 161 0 28 32 9 61 -35z
m76 25 c-3 -8 -6 -5 -6 6 -1 11 2 17 5 13 3 -3 4 -12 1 -19z m-627 -36 c0 -18
-33 -52 -50 -52 -30 0 -35 21 -10 42 22 18 60 25 60 10z m1575 -262 c9 -19 31
-50 48 -67 17 -18 29 -34 26 -36 -2 -2 -19 -14 -38 -27 l-33 -23 -67 32 c-50
25 -74 44 -98 79 -17 25 -30 49 -27 53 2 5 37 31 77 59 l72 51 11 -43 c6 -24
19 -59 29 -78z m723 32 c20 -30 11 -28 -19 4 -13 15 -18 25 -10 22 8 -2 21
-14 29 -26z m-24 -102 c25 -27 46 -53 46 -59 0 -5 -19 -26 -42 -45 l-42 -36
-50 47 c-28 27 -53 49 -55 51 -6 3 81 92 90 92 3 0 27 -22 53 -50z m-1698 -62
c9 -18 28 -48 41 -66 14 -18 23 -34 22 -36 -8 -5 -172 -56 -174 -54 -13 16
-44 103 -38 108 18 16 118 80 125 80 4 0 15 -15 24 -32z m208 -40 c-16 -51
-24 -68 -34 -68 -11 0 -8 15 11 68 5 12 13 22 19 22 7 0 9 -9 4 -22z m906 3
c0 -5 -7 -14 -16 -22 -8 -7 -23 -27 -32 -45 -16 -30 -91 -99 -99 -91 -8 9 68
152 85 159 25 10 62 9 62 -1z m-1394 -82 c17 -34 12 -36 -32 -8 -41 25 -46 48
-9 41 15 -2 32 -16 41 -33z m962 -49 c39 -23 72 -44 72 -48 -1 -7 -204 -164
-220 -170 -5 -2 -11 6 -15 18 -4 12 -28 50 -55 85 -48 63 -51 75 -21 75 19 0
109 46 131 66 20 20 27 18 108 -26z m-670 -2 c18 -18 15 -24 -16 -37 -16 -7
-49 -32 -73 -57 -24 -24 -49 -44 -57 -44 -7 0 -27 -7 -43 -16 -17 -8 -33 -13
-36 -10 -3 2 12 32 33 66 28 46 50 68 83 85 51 27 91 31 109 13z m140 -49 c62
-21 48 -62 -35 -103 -66 -32 -127 -43 -148 -26 -51 42 36 135 131 139 12 1 35
-4 52 -10z m-553 -181 c35 -24 65 -45 65 -49 0 -3 -58 -44 -128 -92 l-128 -88
-105 17 c-87 14 -109 21 -133 44 l-28 28 27 46 27 46 69 0 c75 0 154 24 211
65 18 13 39 24 46 24 7 1 41 -18 77 -41z m1284 -123 c50 -107 149 -197 249
-226 l43 -12 -81 -24 c-88 -25 -130 -42 -172 -69 -24 -16 -28 -16 -51 -1 -14
9 -62 80 -108 159 -45 79 -89 153 -96 165 -13 20 -9 25 79 98 l93 76 8 -53 c4
-29 20 -80 36 -113z m-1109 -9 c0 -3 -4 -8 -10 -11 -5 -3 -10 -1 -10 4 0 6 5
11 10 11 6 0 10 -2 10 -4z m1956 -97 l56 -70 -73 -77 c-40 -42 -85 -90 -99
-105 l-27 -29 -49 35 c-63 45 -106 66 -174 88 -30 9 -46 18 -34 18 83 4 242
93 304 171 17 22 33 40 35 40 2 0 30 -32 61 -71z m-2026 -112 c118 -247 392
-338 626 -207 l51 29 89 -60 c49 -32 90 -62 91 -66 1 -5 -26 -32 -60 -62 -34
-29 -90 -78 -124 -108 l-63 -55 -61 7 c-58 7 -66 11 -123 64 -74 69 -145 106
-246 127 -71 15 -170 14 -240 -2 -24 -5 -26 -2 -69 138 -25 79 -46 148 -49
155 -3 10 122 112 138 112 3 0 21 -32 40 -72z m-333 -71 c11 -10 106 -326 100
-332 -1 -2 -49 34 -106 78 -103 80 -103 81 -97 117 3 20 6 64 6 99 l0 62 43
-6 c23 -4 47 -12 54 -18z m1657 -82 c13 -5 9 -16 -25 -58 -37 -47 -76 -74
-106 -76 -15 0 21 86 50 118 20 22 50 28 81 16z m-1316 -246 c-2 -15 -23 -32
-74 -58 -40 -19 -79 -41 -87 -48 -14 -12 -87 -8 -87 4 0 2 9 18 20 36 15 26
34 37 97 59 43 15 91 28 106 28 24 1 28 -3 25 -21z m974 -128 c-10 -220 150
-439 378 -516 41 -14 83 -19 165 -18 101 0 117 3 193 34 96 39 199 119 250
195 19 28 37 51 40 52 8 3 115 -157 114 -170 0 -7 -286 -379 -323 -421 -9 -11
-782 141 -803 158 -17 13 -249 533 -244 546 2 8 227 220 232 220 1 0 0 -36 -2
-80z m-267 -555 l87 -215 -198 -206 c-110 -114 -223 -233 -252 -265 -30 -33
-61 -59 -70 -59 -36 0 -778 173 -788 184 -11 11 -115 550 -114 592 0 21 122
128 134 117 3 -4 6 -17 6 -29 0 -27 46 -157 69 -194 34 -57 118 -144 174 -182
101 -68 153 -83 297 -82 118 1 129 3 200 34 137 59 254 169 306 286 13 31 32
96 41 145 10 49 18 89 19 89 1 0 41 -97 89 -215z"/>
<path d="M285 1490 c3 -5 8 -10 11 -10 2 0 4 5 4 10 0 6 -5 10 -11 10 -5 0 -7
-4 -4 -10z"/>
</g>
</svg>
